HIERARCHY
ROOT hip
{
  OFFSET 0 0 0
  CHANNELS 6 Xposition Yposition Zposition Zrotation Yrotation Xrotation
  JOINT abdomen
  {
    OFFSET 0 20.6881 -0.73152
    CHANNELS 3 Zrotation Xrotation Yrotation
    JOINT chest
    {
      OFFSET 0 11.7043 -0.48768
      CHANNELS 3 Zrotation Xrotation Yrotation
      JOINT neck
      {
        OFFSET 0 22.1894 -2.19456
        CHANNELS 3 Zrotation Xrotation Yrotation
        JOINT head
        {
          OFFSET -0.24384 7.07133 1.2192
          CHANNELS 3 Zrotation Xrotation Yrotation
          JOINT leftEye
          {
            OFFSET 4.14528 8.04674 8.04672
            CHANNELS 3 Zrotation Xrotation Yrotation
            End Site
            {
              OFFSET 1 0 0
            }
          }
          JOINT rightEye
          {
            OFFSET -3.6576 8.04674 8.04672
            CHANNELS 3 Zrotation Xrotation Yrotation
            End Site
            {
              OFFSET 1 0 0
            }
          }
        }
      }
      JOINT rCollar
      {
        OFFSET -2.68224 19.2634 -4.8768
        CHANNELS 3 Zrotation Xrotation Yrotation
        JOINT rShldr
        {
          OFFSET -8.77824 -1.95073 1.46304
          CHANNELS 3 Zrotation Xrotation Yrotation
          JOINT rForeArm
          {
            OFFSET -28.1742 -1.7115 0.48768
            CHANNELS 3 Zrotation Xrotation Yrotation
            JOINT rHand
            {
              OFFSET -22.5879 0.773209 7.07136
              CHANNELS 3 Zrotation Xrotation Yrotation
              JOINT rThumb1
              {
                OFFSET -1.2192 -0.487915 3.41376
                CHANNELS 3 Zrotation Xrotation Yrotation
                JOINT rThumb2
                {
                  OFFSET -3.37035 -0.52449 3.41376
                  CHANNELS 3 Zrotation Xrotation Yrotation
                  End Site
                  {
                    OFFSET -1.78271 -1.18214 1.43049
                  }
                }
              }
              JOINT rIndex1
              {
                OFFSET -7.75947 0.938293 5.60832
                CHANNELS 3 Zrotation Xrotation Yrotation
                JOINT rIndex2
                {
                  OFFSET -2.54057 -0.884171 1.56538
                  CHANNELS 3 Zrotation Xrotation Yrotation
                  End Site
                  {
                    OFFSET -1.62519 -0.234802 1.16502
                  }
                }
              }
              JOINT rMid1
              {
                OFFSET -8.24714 1.18213 3.41376
                CHANNELS 3 Zrotation Xrotation Yrotation
                JOINT rMid2
                {
                  OFFSET -3.10165 -0.590103 1.0647
                  CHANNELS 3 Zrotation Xrotation Yrotation
                  End Site
                  {
                    OFFSET -2.48547 -0.328903 0.83742
                  }
                }
              }
              JOINT rRing1
              {
                OFFSET -8.82822 0.546677 1.51678
                CHANNELS 3 Zrotation Xrotation Yrotation
                JOINT rRing2
                {
                  OFFSET -2.60934 -0.819778 -0.0198488
                  CHANNELS 3 Zrotation Xrotation Yrotation
                  End Site
                  {
                    OFFSET -2.33842 -0.294052 0.168128
                  }
                }
              }
              JOINT rPinky1
              {
                OFFSET -8.27202 -0.0477905 -0.4584
                CHANNELS 3 Zrotation Xrotation Yrotation
                JOINT rPinky2
                {
                  OFFSET -1.82734 -0.647385 -0.700984
                  CHANNELS 3 Zrotation Xrotation Yrotation
                  End Site
                  {
                    OFFSET -1.69225 -0.51767 -0.607171
                  }
                }
              }
            }
          }
        }
      }
      JOINT lCollar
      {
        OFFSET 2.68224 19.2634 -4.8768
        CHANNELS 3 Zrotation Xrotation Yrotation
        JOINT lShldr
        {
          OFFSET 8.77824 -1.95073 1.46304
          CHANNELS 3 Zrotation Xrotation Yrotation
          JOINT lForeArm
          {
            OFFSET 28.1742 -1.7115 0.48768
            CHANNELS 3 Zrotation Xrotation Yrotation
            JOINT lHand
            {
              OFFSET 22.5879 0.773209 7.07136
              CHANNELS 3 Zrotation Xrotation Yrotation
              JOINT lThumb1
              {
                OFFSET 1.2192 -0.487915 3.41376
                CHANNELS 3 Zrotation Xrotation Yrotation
                JOINT lThumb2
                {
                  OFFSET 3.37035 -0.52449 3.41376
                  CHANNELS 3 Zrotation Xrotation Yrotation
                  End Site
                  {
                    OFFSET 1.78271 -1.18214 1.43049
                  }
                }
              }
              JOINT lIndex1
              {
                OFFSET 7.75947 0.938293 5.60832
                CHANNELS 3 Zrotation Xrotation Yrotation
                JOINT lIndex2
                {
                  OFFSET 2.54057 -0.884171 1.56538
                  CHANNELS 3 Zrotation Xrotation Yrotation
                  End Site
                  {
                    OFFSET 1.62519 -0.234802 1.16502
                  }
                }
              }
              JOINT lMid1
              {
                OFFSET 8.24714 1.18213 3.41376
                CHANNELS 3 Zrotation Xrotation Yrotation
                JOINT lMid2
                {
                  OFFSET 3.10165 -0.590103 1.0647
                  CHANNELS 3 Zrotation Xrotation Yrotation
                  End Site
                  {
                    OFFSET 2.48547 -0.328903 0.83742
                  }
                }
              }
              JOINT lRing1
              {
                OFFSET 8.82822 0.546677 1.51678
                CHANNELS 3 Zrotation Xrotation Yrotation
                JOINT lRing2
                {
                  OFFSET 2.60934 -0.819778 -0.0198488
                  CHANNELS 3 Zrotation Xrotation Yrotation
                  End Site
                  {
                    OFFSET 2.33842 -0.294052 0.168128
                  }
                }
              }
              JOINT lPinky1
              {
                OFFSET 8.27202 -0.0477905 -0.4584
                CHANNELS 3 Zrotation Xrotation Yrotation
                JOINT lPinky2
                {
                  OFFSET 1.82734 -0.647385 -0.700984
                  CHANNELS 3 Zrotation Xrotation Yrotation
                  End Site
                  {
                    OFFSET 1.69225 -0.51767 -0.607171
                  }
                }
              }
            }
          }
        }
      }
    }
  }
  JOINT rButtock
  {
    OFFSET -8.77824 4.35084 1.2192
    CHANNELS 3 Zrotation Xrotation Yrotation
    JOINT rThigh
    {
      OFFSET 0 -1.70687 -2.19456
      CHANNELS 3 Zrotation Xrotation Yrotation
      JOINT rShin
      {
        OFFSET 0 -36.8199 0.73152
        CHANNELS 3 Zrotation Xrotation Yrotation
        JOINT rFoot
        {
          OFFSET 0.73152 -45.1104 -5.12064
          CHANNELS 3 Zrotation Xrotation Yrotation
          End Site
          {
            OFFSET -1.1221 -3.69964 12.103
          }
        }
      }
    }
  }
  JOINT lButtock
  {
    OFFSET 8.77824 4.35084 1.2192
    CHANNELS 3 Zrotation Xrotation Yrotation
    JOINT lThigh
    {
      OFFSET 0 -1.70687 -2.19456
      CHANNELS 3 Zrotation Xrotation Yrotation
      JOINT lShin
      {
        OFFSET 0 -36.8199 0.73152
        CHANNELS 3 Zrotation Xrotation Yrotation
        JOINT lFoot
        {
          OFFSET -0.73152 -45.1104 -5.12064
          CHANNELS 3 Zrotation Xrotation Yrotation
          End Site
          {
            OFFSET 1.1221 -3.69964 12.103
          }
        }
      }
    }
  }
}
MOTION
Frames:	9
Frame Time:	0.03333
0.0 0.0 0.0 0.0 0.0 0.0 0.0 0.0 0.0 0.0 0.0 0.0 0.0 0.0 0.0 0.0 0.0 0.0 0.0 0.0 0.0 0.0 0.0 0.0 0.0 0.0 0.0 0.0 0.0 0.0 0.0 0.0 0.0 0.0 0.0 0.0 0.0 0.0 0.0 0.0 0.0 0.0 0.0 0.0 0.0 0.0 0.0 0.0 0.0 0.0 0.0 0.0 0.0 0.0 0.0 0.0 0.0 0.0 0.0 0.0 0.0 0.0 0.0 0.0 0.0 0.0 0.0 0.0 0.0 0.0 0.0 0.0 0.0 0.0 0.0 0.0 0.0 0.0 0.0 0.0 0.0 0.0 0.0 0.0 0.0 0.0 0.0 0.0 0.0 0.0 0.0 0.0 0.0 0.0 0.0 0.0 0.0 0.0 0.0 0.0 0.0 0.0 0.0 0.0 0.0 0.0 0.0 0.0 0.0 0.0 0.0 0.0 0.0 0.0 0.0 0.0 0.0 0.0 0.0 0.0 0.0 0.0 0.0 0.0 0.0 0.0 0.0 0.0 0.0 0.0 0.0 0.0
0.3359 58.499500000000005 -4.1595 -0.812747 15.219532 2.390565 -0.52945 16.57685 -179.435851 -5.249139 7.793861 178.033782 -14.581646 29.897907 -91.716141 51.27475 12.38311 66.116897 -0.005583 0.0 -0.001561 -0.005583 0.0 -0.001561 4.093545 -55.982649 -11.232491 -119.723192 -16.372383 -177.99452 -8.56804 6.924176 -93.848846 146.460258 -48.166979 131.012562 -140.310342 19.266291 82.256194 -158.018671 -13.623898 75.775979 -11.964297 16.669727 7.876105 170.338349 -43.466704 101.69374 -112.200258 56.171202 102.654497 -158.568816 8.217083 141.244474 -0.095016 7.419898 2.341595 -156.506808 -9.429217 173.017756 -0.324465 -0.838051 -0.298883 -163.623444 66.478213 -149.654884 3.922188 18.501775 -4.820425 -71.924178 17.404984 -33.530827 -179.430608 -7.36444 -59.78818 138.362964 34.313155 -123.493901 11.286693 10.62414 -2.75265 -20.158836 -23.307112 5.802458 143.797761 -3.61505 -117.901812 -16.944754 -14.800955 10.574362 43.645846 55.221495 -36.981757 170.809863 -28.166435 -144.12087 0.0258 -1.937474 0.609548 1.957587 56.869368 -14.618762 137.519567 -8.31108 134.790849 -33.564758 73.424765 -0.76231 -179.978989 75.749873 -0.015134 172.931755 11.713041 -128.749351 -35.937265 -32.855242 -19.512335 40.295513 -21.063252 150.860305 0.008765 0.001451 0.005645 -3.309835 -35.207604 -25.419063 -89.439596 69.712573 -138.618153 -54.152177 72.006143 -53.829305
0.45649999999999996 58.462599999999995 -6.3639 -1.390199 11.482729 2.61346 -0.62315 17.080175 -178.600259 -5.009164 8.053846 177.864352 -7.103047 17.419883 -7.24406 11.962087 -38.012219 -6.278704 -0.002316 -0.0 0.000837 -0.003258 0.0 -0.004761 -156.470184 -10.338157 163.235049 40.467579 62.722082 -62.54876 -44.550338 70.296544 106.260766 -4.256223 28.44333 2.390793 -171.3796 -9.061955 89.951135 -69.619068 1.230097 20.634893 -116.137653 29.275327 98.230856 161.735987 -55.175133 102.6935 -12.424559 28.300632 8.807637 65.171678 -76.237731 37.469969 0.002225 0.3395 0.107981 -149.984599 38.974 164.808569 -149.715924 27.779632 -145.681438 14.066146 35.982648 5.398864 149.454853 23.883071 -154.464382 -115.82025 -17.324909 -162.659567 -28.361738 17.388193 -78.443512 18.667463 -24.871226 5.111764 154.174581 7.785665 -87.478611 163.786254 -9.95249 -79.99548 34.608939 34.912743 -26.19128 -15.809124 -12.857095 2.725079 7.7226 19.439386 -5.122515 1.581364 13.519728 -2.371274 -0.000732 -0.045228 0.013528 156.52198 -40.544202 -176.7176 -4.623859 13.460801 -4.181212 -21.026918 63.236823 -9.386584 -0.009863 0.000357 -0.005857 -13.015981 -63.780188 -80.495728 -35.306233 12.615185 69.277556 78.384174 -30.378828 -12.776857 0.0021 0.00016 0.000889 -3.880466 -39.06655 163.896396 72.63749 -79.631325 -21.256104 34.857942 -56.649571 -39.538298
0.5932999999999999 58.368900000000004 -8.648200000000001 -1.835202 7.905464 2.871252 -0.822604 17.659171 -172.156161 -3.658026 8.649599 172.046897 -4.583272 36.420585 -162.583149 21.324735 56.428782 137.086634 5e-05 -0.0 -3.1e-05 5e-05 -0.0 -3.1e-05 -122.574226 59.592193 126.245244 125.348373 -42.988823 148.797156 43.454648 -21.216092 75.057965 -47.076049 74.613269 33.330949 -20.786047 18.371988 6.46087 156.61159 -72.896252 73.317719 -120.519615 25.818259 101.799823 -178.858802 -37.029827 114.337264 -5.932338 15.496354 3.811646 74.312494 -77.449824 46.115698 -95.962066 71.393155 115.038627 -148.533245 -63.827291 -167.058947 -133.622417 -16.103252 -131.090267 -167.675984 67.187149 -144.988989 156.601028 -11.355564 -163.434878 79.886601 -37.6998 33.091957 -29.594049 53.901559 141.382173 129.130424 41.604496 -113.358325 -14.694423 -14.604488 0.384827 124.028841 -4.240393 -111.36123 45.510663 39.432481 -35.702305 -30.928193 -34.704335 -0.056683 175.363838 -49.481552 -144.246999 -9.916562 -20.630754 1.20301 145.123838 1.805175 179.694412 149.314633 -39.612544 171.738908 1.824513 -4.547159 1.694111 116.398171 -41.557868 115.328111 -179.972123 75.748407 -0.020792 174.746399 10.209444 -17.185003 -23.289346 45.847989 -67.892458 3.206898 -78.500705 104.278682 -179.992667 75.749579 -0.005173 177.607852 36.721108 -0.401236 -5.8042 81.32229 61.769955 36.090748 -31.187225 -16.769108
0.737 58.215399999999995 -10.978200000000001 -2.091849 4.532518 3.192995 -1.951248 22.926941 2.521592 4.663549 -13.079031 -1.357053 -9.618351 34.515807 -133.472891 43.688423 43.337572 104.892241 0.004307 0.0 0.000103 0.003349 -0.0 -0.005491 -156.420234 -70.697875 177.917876 44.667675 17.423966 -37.170568 144.870118 -56.022485 53.852896 164.664699 -19.351054 145.110896 0.311105 -0.309518 -0.047978 -106.47944 7.487353 97.062657 -145.064303 -5.788395 118.54361 127.147091 -69.848063 72.108106 -172.410012 -42.498085 145.064541 -6.3918 23.72056 5.560835 -145.070069 -3.087024 -178.156412 -1.193616 -53.346389 -22.234737 15.088593 52.566861 11.949831 -142.985612 -3.458023 -138.967228 159.185166 -44.970206 -169.770513 80.616674 -22.011329 69.524087 78.751811 24.025309 65.160444 166.730823 -28.409928 -155.700243 -35.742587 -32.370521 -5.279315 4.714945 -80.378362 56.33627 28.938642 31.640297 -21.36918 167.515975 -16.981926 -110.974486 -19.026475 -53.724663 1.2752 -179.74294 -49.288734 -141.174293 -0.004357 1.765621 -0.555718 18.844444 -84.665086 39.889731 26.75301 -38.999083 25.790396 -7.850545 14.023747 -3.390459 -179.998074 75.748744 -0.001659 175.394208 6.177465 162.18093 5.543718 -57.415454 -76.838573 3.204075 37.922494 -101.662213 -179.998074 75.748744 -0.001659 179.081811 34.328938 2.050199 6.577858 86.300913 90.436152 110.255145 -73.083921 21.161031
0.8654999999999999 57.970600000000005 -13.328400000000002 -2.273401 1.41584 3.563026 -2.786072 23.302158 1.655584 4.776451 -13.077165 0.016877 -10.25691 18.540662 -29.104476 33.300884 -29.561484 28.860528 0.004132 0.0 0.000195 -0.001518 -0.0 0.001121 -154.033209 5.126622 159.892692 -29.500195 9.662668 -23.011131 -4.297748 -23.942177 -93.027132 149.844191 -44.690721 133.914732 -3.919008 3.820687 0.73008 -68.201679 25.949501 63.365298 -157.387252 -28.32937 122.497968 -8.987375 34.221578 1.665318 -161.196981 -8.294815 143.483981 -163.989854 -6.863804 143.167952 0.005014 1.811569 0.57072 11.004591 -14.784866 -1.830098 -149.291232 26.195756 -145.335808 -157.672578 42.422682 -146.511683 -4.034471 -56.956957 11.495164 -72.850999 -16.283214 28.090628 -131.464371 -58.972186 -3.315858 125.978194 44.767577 -108.734849 6.294162 6.075622 -1.2916 -11.481117 -13.286968 4.292412 3.483332 5.42737 -2.078439 24.397753 36.378528 -17.565412 150.849568 19.191307 -137.075263 -0.38554 8.213668 -1.640832 0.223382 10.428072 -3.306643 155.295329 10.71179 -170.477588 5.051653 -11.665333 4.736003 -26.004273 71.978227 -7.802728 179.991239 75.749535 0.005851 176.009749 4.854275 113.517046 58.068926 -33.155417 -29.275591 -115.348228 -62.831742 150.961852 0.004864 0.000146 0.002138 1.287589 -46.336024 -178.292912 88.952006 -74.520406 152.346589 -157.575177 13.252735 -153.257201
0.9733999999999999 57.627700000000004 -15.711400000000001 -2.570726 -1.337834 3.935141 -1.594911 19.580328 -132.684625 4.608706 8.400006 132.991359 -13.995911 27.319469 -84.942065 52.500925 10.509749 74.34621 0.000987 -0.0 -0.000832 0.000987 -0.0 -0.000832 -138.404008 46.435003 142.567138 142.418032 7.265611 168.117648 151.951587 -30.847745 72.624767 166.862741 -13.206775 146.602951 -17.390765 15.751847 5.007484 -92.943581 8.151456 85.486169 -176.217166 -55.455276 118.710109 10.965694 7.687114 -7.599984 -161.823905 -10.265131 143.75406 -57.971489 62.289966 51.136007 -0.462862 14.282512 4.572569 7.501146 18.30461 2.392228 0.744036 1.969466 0.683479 131.233273 86.925973 -91.688326 -2.832561 -21.891428 4.351096 -70.80976 49.233747 -28.178244 -4.965254 6.773745 -97.425451 13.672976 -36.45442 9.220472 163.452188 -1.130972 -89.432226 20.024816 -37.056944 -8.872316 10.572096 15.015957 -6.865462 123.482419 33.234559 -94.689147 3.977942 10.798289 -2.452935 156.600773 13.939322 -140.30071 -0.001444 0.37158 -0.117186 146.324084 -78.425117 168.999746 139.001242 -4.926107 136.180633 123.784968 -32.507926 121.851911 179.985296 75.747978 0.011966 177.588792 4.874416 32.677908 61.24804 53.638033 -148.576743 -1.604153 -26.009894 74.647004 179.987886 75.750835 0.010131 -176.951604 26.653793 172.49213 87.513601 -77.907325 -2.148293 12.882473 -51.856051 -55.292694
1.0736 57.241299999999995 -18.1451 -3.076519 -3.634104 4.296494 -2.833386 23.631104 -20.900744 8.428424 -10.62625 22.367053 7.954337 27.92509 112.304907 -48.270025 21.846562 -105.710665 0.002024 0.0 0.000621 0.002024 0.0 0.000621 -18.879367 49.247662 20.950453 79.0078 -29.915701 88.341249 1.173758 3.209522 55.376975 -8.19984 40.032921 3.518787 -159.933985 2.327865 88.854812 -55.02991 -10.797515 18.416079 -141.080165 0.87528 116.412439 20.499199 -22.726877 -10.148664 12.380455 -38.281609 -3.185589 -8.662438 28.456091 6.94341 -144.943107 -6.686251 -177.014392 11.436299 8.734914 -7.917675 -120.599412 -33.615705 -118.473831 -167.546295 68.308686 -145.273919 154.14522 4.52619 -160.036003 55.952752 19.659311 36.200711 159.007092 -12.784275 74.113487 8.925142 -51.131251 12.008362 166.14316 -3.815577 -89.730816 146.580741 4.048429 -73.893879 152.63735 -19.549128 -121.524269 -165.407215 -59.289342 -103.583027 21.170507 40.156261 -16.268418 154.232803 19.319617 -138.872568 0.000609 -0.02003 0.008136 153.589916 18.415871 -169.214858 -17.846798 62.431403 -12.923215 148.668646 12.697825 143.304689 0.000897 -0.001356 1.2e-05 -3.805464 -73.18502 177.00909 -14.828284 -85.17879 72.752852 9.345855 -10.681065 82.452707 -179.994157 75.749287 -0.003999 -174.231597 26.113969 -8.951874 -81.028904 75.525144 166.965258 152.578037 -44.980838 43.428187
1.1737 56.9017 -20.621000000000002 -3.725846 -5.50486 4.704397 -3.968932 19.069793 175.213756 -5.710344 7.884315 -174.591639 8.122371 26.348433 104.561273 -48.347157 15.012597 -98.218867 -6.3e-05 -0.0 0.00286 0.004742 -0.0 -0.003606 -145.013754 35.431692 149.576273 -49.165449 3.050607 -2.161577 -176.49885 -19.34938 -127.386203 -8.979875 42.043879 3.835377 -169.556101 -7.238101 89.929641 -175.268114 -12.45049 91.068884 8.718407 -15.281188 -4.067909 -174.882892 -33.430981 107.214909 -147.494783 25.762903 134.481545 -167.561898 -18.123866 143.893406 -145.122565 0.761983 -179.366741 -152.794151 -22.866484 -175.755653 -0.281918 -0.727574 -0.25952 17.824799 53.33458 9.468983 12.591315 40.53277 -14.348418 94.39596 -11.098323 -81.644112 121.868738 7.819796 52.99327 -162.186224 -83.260339 -143.31635 3.641254 3.553738 -0.669156 10.298081 10.893631 -10.934198 176.688586 -55.922092 -118.479345 -39.810485 -43.697638 4.904498 171.158572 -39.173341 -145.260622 158.86383 8.203583 -141.127718 145.053598 -3.637104 177.981803 33.499046 -74.633292 55.115026 14.555854 -27.094571 13.869525 148.222105 16.395242 144.62343 -179.99807 75.748408 -0.002402 179.396589 3.578329 -167.711138 -93.20892 -76.934055 16.375846 117.30444 27.87374 -23.257308 0.002972 0.000112 0.002961 12.075172 -51.606789 1.859179 -84.319344 59.90095 -4.510758 85.613896 -38.846269 158.09337
